<svg xmlns="http://www.w3.org/2000/svg" width="70" height="70" viewBox="0 0 70 70" fill="none"><g clip-path="url(#clip0_606_621)"><path d="M67.2286 15.4453L35.4459 0.101863C35.1641 -0.0340356 34.836 -0.0340356 34.5543 0.101863L2.77145 15.4453C2.41707 15.6163 2.19189 15.9752 2.19189 16.3687V53.6312C2.19189 54.0247 2.41707 54.3836 2.77145 54.5546L34.5542 69.898C34.695 69.966 34.8476 70 35 70C35.1525 70 35.3049 69.966 35.4459 69.898L67.2286 54.5546C67.583 54.3836 67.8081 54.0247 67.8081 53.6312V16.3688C67.8081 15.975 67.5828 15.6164 67.2286 15.4453ZM35 2.16399L64.4242 16.3687L55.8947 20.4864C55.8407 20.4452 55.7837 20.4072 55.7211 20.377L26.4968 6.26897L35 2.16399ZM24.1811 7.42835L53.5625 21.6124L47.5448 24.5175L18.1755 10.3392L24.1811 7.42835ZM54.2499 23.5576V34.2963L48.629 37.0099V26.2712L54.2499 23.5576ZM65.7574 52.9878L36.0254 67.3408V32.3556L43.1174 28.9319C43.6274 28.6856 43.8412 28.0727 43.595 27.5626C43.3487 27.0528 42.7358 26.8387 42.2257 27.0851L35 30.5735L32.1568 29.2008C31.6467 28.9543 31.0338 29.1684 30.7876 29.6784C30.5413 30.1883 30.7552 30.8014 31.2651 31.0476L33.9746 32.3556V67.3408L4.24268 52.9875V18.0023L26.8833 28.9323C27.027 29.0017 27.1789 29.0346 27.3283 29.0346C27.7095 29.0346 28.0756 28.821 28.2524 28.4547C28.4986 27.9448 28.2848 27.3317 27.7748 27.0855L5.57582 16.3687L15.762 11.4512L46.564 26.3211C46.5685 26.3274 46.5735 26.333 46.5782 26.3391V38.6437C46.5782 38.9966 46.7596 39.3246 47.0585 39.5123C47.2244 39.6164 47.4138 39.6691 47.6037 39.6691C47.7557 39.6691 47.9082 39.6353 48.0494 39.5671L55.7211 35.8635C56.0755 35.6925 56.3007 35.3337 56.3007 34.9401V22.5678L65.7574 18.0024V52.9878Z" fill="black"></path><path d="M12.7045 49.0108L8.04032 46.7592C7.53008 46.5127 6.91731 46.7268 6.67108 47.2368C6.42485 47.7467 6.63868 48.3598 7.14864 48.606L11.8128 50.8576C11.9565 50.9271 12.1084 50.9599 12.2578 50.9599C12.639 50.9599 13.0051 50.7463 13.1819 50.3801C13.4283 49.87 13.2144 49.2572 12.7045 49.0108Z" fill="black"></path><path d="M16.9974 46.2167L8.04707 41.8958C7.53697 41.6496 6.92406 41.8634 6.67783 42.3735C6.43173 42.8835 6.64556 43.4965 7.15552 43.7427L16.1058 48.0636C16.2495 48.1329 16.4014 48.1659 16.5508 48.1659C16.932 48.1659 17.2981 47.9523 17.4749 47.586C17.7211 47.0758 17.5073 46.4628 16.9974 46.2167Z" fill="black"></path></g><defs><clipPath id="clip0_606_621"><rect width="70" height="70" fill="white"></rect></clipPath></defs></svg>